#!OML:ASF F:\VICON\USERDATA\INSTALL\rory3\rory3.ASF
:FULLY-SPECIFIED
:DEGREES
178
root 3.08874 16.7405 -0.0840474 15.3328 5.26192 10.4997
lowerback -6.63912 1.70483 0.452479
upperback -2.2704 2.425 -7.56317
thorax 1.72219 1.22615 -7.99514
lowerneck -2.59127 14.6276 5.20273
upperneck 47.9527 24.3434 -1.3783
head 20.3186 10.6263 2.57424
rclavicle -4.2192e-014 5.32743e-014
rhumerus -36.745 4.60105 -94.3222
rradius 43.026
rwrist -36.6938
rhand -9.51216 -49.91
rfingers 7.12502
rthumb 16.4534 -79.2323
lclavicle -4.2192e-014 5.32743e-014
lhumerus -28.4868 -20.9392 82.4919
lradius 41.7265
lwrist 72.94
lhand -36.6846 -14.8957
lfingers 7.12502
lthumb -9.77034 14.8577
rfemur -50.5804 23.8553 -5.95899
rtibia 73.9125
rfoot 3.64114 8.1241
rtoes -39.8804
lfemur -32.4961 -6.3376 -36.3267
ltibia 38.574
lfoot -16.9174 10.0148
ltoes 4.6237
179
root 3.08907 16.7339 -0.0869472 15.3535 5.21741 10.4353
lowerback -6.63673 1.72581 0.528
upperback -2.2798 2.44733 -7.55146
thorax 1.71681 1.23717 -8.02465
lowerneck -2.36725 14.6119 5.28039
upperneck 47.7011 24.3406 -1.59533
head 20.1516 10.6417 2.4214
rclavicle 1.02374e-014 6.04305e-014
rhumerus -36.7841 4.35138 -94.1826
rradius 43.2029
rwrist -36.1874
rhand -11.8177 -47.5073
rfingers 7.12502
rthumb 14.2326 -76.9996
lclavicle 1.02374e-014 6.04305e-014
lhumerus -28.4434 -20.9281 82.4869
lradius 41.7115
lwrist 72.8982
lhand -37.3247 -14.4623
lfingers 7.12502
lthumb -10.3879 15.2611
rfemur -50.5599 23.8725 -5.89758
rtibia 73.9044
rfoot 3.13908 8.26405
rtoes -41.5794
lfemur -32.5753 -6.29656 -36.2753
ltibia 38.6405
lfoot -16.9637 10.0365
ltoes 4.54941
180
root 3.09079 16.7361 -0.0877142 15.3015 5.28599 10.415
lowerback -6.57249 1.72163 0.563968
upperback -2.27437 2.43748 -7.54815
thorax 1.68648 1.23179 -8.04436
lowerneck -2.25096 14.5601 5.28538
upperneck 47.5645 24.2484 -1.66075
head 20.0338 10.616 2.34867
rclavicle 2.78299e-015 -5.56597e-014
rhumerus -36.8071 3.8685 -93.9319
rradius 43.3476
rwrist -35.0871
rhand -7.49389 -52.0962
rfingers 7.12502
rthumb 18.3958 -81.2464
lclavicle 2.78299e-015 -5.56597e-014
lhumerus -28.4802 -20.9507 82.5088
lradius 41.7041
lwrist 72.7675
lhand -37.5402 -14.1254
lfingers 7.12502
lthumb -10.5958 15.5875
rfemur -50.439 23.8623 -5.82348
rtibia 73.8796
rfoot 3.63196 7.6821
rtoes -39.4956
lfemur -32.5164 -6.3313 -36.2519
ltibia 38.6485
lfoot -16.9791 10.0282
ltoes 4.34381
181
root 3.09254 16.7361 -0.0848656 15.262 5.37497 10.4732
lowerback -6.56782 1.70669 0.506873
upperback -2.26992 2.42173 -7.56498
thorax 1.68466 1.22397 -8.0308
lowerneck -2.12298 14.514 5.3692
upperneck 47.4907 24.1759 -1.7329
head 19.9785 10.6052 2.27318
rclavicle -1.30701e-014 9.30312e-014
rhumerus -36.9006 3.99143 -94.0962
rradius 43.2618
rwrist -35.8858
rhand -9.79803 -50.2066
rfingers 7.12502
rthumb 16.1781 -79.5515
lclavicle -1.30701e-014 9.30312e-014
lhumerus -28.5992 -20.9987 82.5289
lradius 41.7604
lwrist 72.7641
lhand -37.7006 -13.9679
lfingers 7.12502
lthumb -10.7505 15.737
rfemur -50.2675 23.79 -5.81717
rtibia 73.8328
rfoot 4.09834 7.1682
rtoes -37.0222
lfemur -32.3981 -6.39763 -36.3081
ltibia 38.5825
lfoot -16.9473 10
ltoes 4.21671
182
root 3.09547 16.7361 -0.0792749 15.286 5.37316 10.4576
lowerback -6.66473 1.72458 0.528855
upperback -2.27914 2.44746 -7.56607
thorax 1.7338 1.23779 -8.0405
lowerneck -2.43198 14.6021 5.28066
upperneck 47.9722 24.2646 -1.31525
head 20.2829 10.6266 2.56028
rclavicle -1.73937e-014 6.99722e-014
rhumerus -36.8836 3.87398 -94.0221
rradius 43.1844
rwrist -35.5331
rhand -7.57005 -52.6232
rfingers 7.12502
rthumb 18.3225 -81.7802
lclavicle -1.73937e-014 6.99722e-014
lhumerus -28.626 -20.9818 82.5232
lradius 41.7492
lwrist 72.8348
lhand -37.8449 -13.9984
lfingers 7.12502
lthumb -10.8896 15.6992
rfemur -50.2224 23.7785 -5.81203
rtibia 73.7938
rfoot 4.10053 7.22119
rtoes -37.0408
lfemur -32.3815 -6.41325 -36.3008
ltibia 38.5632
lfoot -16.9565 9.98694
ltoes 4.33408
